<svg xmlns="http://www.w3.org/2000/svg" viewBox="0 0 256 256" role="img" aria-labelledby="title desc">
<title id="title">WheelLoop Sport Roast</title>
<desc id="desc">A bold sports chat bubble with a lightning bolt to represent sharp commentary.</desc>
<defs>
  <linearGradient id="bg" x1="0%" x2="100%" y1="0%" y2="100%">
    <stop offset="0%" stop-color="#0ea5e9"/>
    <stop offset="100%" stop-color="#22c55e"/>
  </linearGradient>
  <linearGradient id="accent" x1="0%" x2="100%" y1="0%" y2="100%">
    <stop offset="0%" stop-color="#f97316"/>
    <stop offset="100%" stop-color="#f43f5e"/>
  </linearGradient>
</defs>
<rect x="12" y="12" width="232" height="232" rx="32" fill="#0b1220"/>
<circle cx="128" cy="118" r="96" fill="url(#bg)" opacity=".16"/>
<path d="M66 84c0-10.5 8.5-19 19-19h85c10.5 0 19 8.5 19 19v51c0 10.5-8.5 19-19 19H120l-24 20c-3 2.4-7.5.13-7.5-3.6V154H85c-10.5 0-19-8.5-19-19z" fill="#0b1220" stroke="url(#bg)" stroke-width="10" stroke-linejoin="round"/>
<path d="M116 74c-6.6 0-12 5.4-12 12s5.4 12 12 12h88c6.6 0 12-5.4 12-12s-5.4-12-12-12z" fill="url(#accent)" opacity=".9"/>
<path d="M136 92h-18l26-34h18l-14 22h18l-42 54 12-38z" fill="url(#accent)"/>
<circle cx="98" cy="122" r="9" fill="#e2e8f0"/>
<circle cx="132" cy="122" r="9" fill="#e2e8f0"/>
<circle cx="166" cy="122" r="9" fill="#e2e8f0"/>
</svg>
